<svg xmlns="http://www.w3.org/2000/svg" xmlns:xlink="http://www.w3.org/1999/xlink" aria-hidden="true" role="img" class="iconify iconify--ph" width="32" height="32" preserveAspectRatio="xMidYMid meet" viewBox="0 0 256 256">
  <path d="M234.988 206.675l-14.221-128A11.988 11.988 0 0 0 208.84 68h-37.03a43.992 43.992 0 0 0-87.62 0H47.16a11.988 11.988 0 0 0-11.927 10.675l-14.221 128A12 12 0 0 0 32.938 220h190.123a12 12 0 0 0 11.927-13.325zM128 36a36.048 36.048 0 0 1 35.772 32H92.228A36.048 36.048 0 0 1 128 36zm98.042 174.668a3.951 3.951 0 0 1-2.98 1.332H32.938a4 4 0 0 1-3.975-4.442l14.222-128A3.996 3.996 0 0 1 47.16 76h161.68a3.996 3.996 0 0 1 3.975 3.558l14.222 128a3.952 3.952 0 0 1-.995 3.11z" fill="currentColor">
  </path>
</svg>