<svg xmlns="http://www.w3.org/2000/svg" xmlns:xlink="http://www.w3.org/1999/xlink" aria-hidden="true" role="img" class="iconify iconify--noto-v1" width="30" height="30" preserveAspectRatio="xMidYMid meet" viewBox="0 0 120 120"><defs><path id="IconifyId-17ced5d63ab-ee6a1a-83" d="M125.76 64.91c2.32 2.99 2.04 6.61-.68 8.03l-82.41 43.15c-3.62 1.88-8.38.33-10.54-3.45L1.46 59.07c-1.79-3.13-.4-6.8 3.03-8.17l79.49-31.67c2.66-1.05 6.41.15 8.39 2.7l33.39 42.98z"></path></defs><use xlink:href="#IconifyId-17ced5d63ab-ee6a1a-83" overflow="visible" fill="#fcc21b"></use><clipPath id="IconifyId-17ced5d63ab-ee6a1a-84"><use xlink:href="#IconifyId-17ced5d63ab-ee6a1a-83" overflow="visible"></use></clipPath><path clip-path="url(#IconifyId-17ced5d63ab-ee6a1a-84)" fill="#2f2f2f" d="M106.86 35.82L8.43 79.41L-.02 64.45l97.55-40.54z"></path><path d="M119.26 64.62c1.14 1.5.98 3.3-.4 3.99l-11.09 5.66c-1.43.73-3.54.05-4.68-1.51l-6.51-8.93c-1.09-1.51-.82-3.29.6-3.97l11.03-5.25c1.36-.65 3.36 0 4.48 1.44l6.57 8.57z" fill="#fff"></path></svg>