<svg xmlns="http://www.w3.org/2000/svg" xmlns:xlink="http://www.w3.org/1999/xlink" aria-hidden="true" role="img" class="iconify iconify--simple-line-icons" width="32.5" height="32" preserveAspectRatio="xMidYMid meet" viewBox="0 0 1040 1024"><path d="M1031 969L720 656q93-111 93-256q0-109-53.5-201t-146-145.5T412.5 0T212 53.5T66.5 199T13 400t53.5 201T212 746.5T413 800q149 0 262-98l310 312q10 10 23 10t22.5-9.5t9.5-23t-9-22.5zM413 737q-92 0-169.5-45.5T121 568.5T76 400t45-168.5t122.5-123t169-45.5t169 45.5t122.5 123T749 400q0 39-9 77t-25.5 71t-39.5 62.5t-52 52.5t-62 39.5t-71 25.5t-77 9z" fill="currentColor"></path></svg>